<?xml version="1.0" encoding="UTF-8" standalone="no"?>
<!DOCTYPE svg PUBLIC "-//W3C//DTD SVG 1.1//EN" "http://www.w3.org/Graphics/SVG/1.1/DTD/svg11.dtd">
<!-- Created with Vectornator (http://vectornator.io/) -->
<svg height="100%" stroke-miterlimit="10" style="fill-rule:nonzero;clip-rule:evenodd;stroke-linecap:round;stroke-linejoin:round;" version="1.1" viewBox="0 0 298 56.4" width="100%" xml:space="preserve" xmlns="http://www.w3.org/2000/svg" xmlns:vectornator="http://vectornator.io" xmlns:xlink="http://www.w3.org/1999/xlink">
<defs/>
<clipPath id="ArtboardFrame">
<rect height="56.4" width="298" x="0" y="0"/>
</clipPath>
<g clip-path="url(#ArtboardFrame)" id="layer1" vectornator:layerName="layer1">
<path d="M253.3 41.4063C250.8 40.8063 250.2 39.5063 249.9 37.1063C249.3 33.1063 249.3 23.1063 249.9 18.8063C250.2 16.6063 251.5 15.4063 253.3 14.8063C255.5 14.2063 275.3 13.9063 277.5 14.8063C279.4 15.4063 280 16.7063 280.3 18.5063C281.2 22.5063 281.2 32.8063 280.3 36.8063C280 38.7063 279.4 39.6063 277.5 40.5063C275.7 42.0063 256.1 42.0063 253.3 41.4063L253.3 41.4063ZM284 1.00635C278.1-0.193652 255.4-0.593652 246.4 1.00635C239.6 2.20635 234.3 7.20635 232.7 13.4063C231.5 20.5063 231.5 36.4063 232.7 42.9063C233.9 48.8063 238.9 54.1063 246.4 55.3063C254.2 56.9063 277.1 56.5063 284.3 55.0063C292.7 53.1063 296.1 46.9063 297 42.9063C298.2 36.7063 298.2 20.9063 297 13.4063C295.5 6.90634 289.9 2.30634 284 1.00635L284 1.00635ZM206.1 1.40634L223.2 1.40634L223.2 55.1063L206.1 55.1063L206.1 1.40634ZM178.8 34.6064C181.6 35.2064 182.2 37.4064 182.2 39.3064C182.2 41.2064 181.9 43.3064 178.8 43.6064C175.4 44.2064 163.9 44.2064 159.6 43.6064C157.7 43.3064 155.6 43.3064 154.9 39.9064L154.9 39.0064L137.8 39.0064C137.8 39.3064 137.8 40.2064 138.1 41.5064C138.7 48.6064 141.5 53.6064 149.6 55.2064C156.1 56.4064 180.6 56.8064 188.1 55.2064C196.8 53.3064 199 45.6064 199 38.7064C199 30.9064 196.2 25.7064 189.4 23.5064C187.5 22.9064 183.2 22.6064 181.3 22.6064C179.7 22.6064 161.4 22.0064 157.4 21.4064C154.9 21.1064 154.3 19.5064 154.3 17.4064C154.3 15.2064 154.6 13.7064 157.7 13.1064C161.4 12.5064 176 12.5064 177.6 13.1064C179.5 13.7064 180.1 15.0064 180.1 16.5064L180.1 17.7064L197.2 17.7064C197.2 16.5064 196.9 15.5064 196.9 14.6064C196 6.20635 191.3 1.60635 182.9 0.906354C174.5 0.00635397 155.3 0.306354 149.4 1.20635C143.8 2.40635 138.2 5.90635 138.2 17.3064C138.2 26.6064 142.5 31.3064 150 32.8064C152.2 33.1064 158.4 33.4064 159.3 33.4064C161.4 33.6064 177.6 34.3063 178.8 34.6064L178.8 34.6064ZM111.4 34.3063L92.5 34.3063L100.6 12.9063L103.4 12.9063L111.4 34.3063ZM115.2 45.4063L118.9 55.0063L137.2 55.0063L114.2 1.00634L89.4 1.00634L66.7 55.0063L85 55.0063L88.7 45.1063L115.2 45.4063L115.2 45.4063ZM17.7 37.4063C18 40.5063 19.6 41.1063 21.1 41.4063C23.6 42.0063 41.3 42.0063 44.4 41.4063C46.6 41.1063 48.1 39.5063 48.4 37.7063C48.4 36.8063 48.7 35.2063 48.7 34.6063L66.4 34.6063C66.4 35.8063 66.4 38.9063 66.1 41.7063C65.2 48.2063 61.4 53.5063 53.4 55.4063C47.8 56.6063 20.8 56.6063 14.6 55.4063C8.1 53.8063 2.5 49.8063 0.899998 43.0063C-0.300002 36.8063-0.300002 20.6063 0.899998 13.8063C1.8 8.80634 6.5 2.90634 14.2 1.40634C21.3 0.206341 46.5-0.193659 53.3 1.40634C62.3 3.60634 65.1 11.6063 65.4 14.4063C65.7 17.5063 65.7 19.7063 65.7 20.9063L48 20.9063C48 19.7063 48.3 16.2063 45.2 15.3063C43.3 14.7063 26 14.7063 21.6 15.0063C19.4 15.3063 18.2 16.2063 17.9 18.4063C17.1 22.8063 17.1 33.3063 17.7 37.4063L17.7 37.4063Z" fill="#ffffff" fill-rule="nonzero" opacity="1" stroke="none"/>
</g>
</svg>
